<svg width="673" height="433" viewBox="0 0 673 433" fill="none" xmlns="http://www.w3.org/2000/svg">
<g clip-path="url(#clip0_1140_76)">
<path d="M629.081 382.584H459.019C452.832 382.577 446.9 380.109 442.525 375.721C438.15 371.333 435.689 365.383 435.682 359.178V90.1185C435.689 83.9127 438.15 77.9631 442.525 73.575C446.9 69.1868 452.832 66.7185 459.019 66.7115H629.081C635.268 66.7185 641.2 69.1868 645.575 73.575C649.95 77.9631 652.411 83.9127 652.418 90.1185V359.178C652.411 365.383 649.95 371.333 645.575 375.721C641.2 380.109 635.268 382.577 629.081 382.584Z" fill="#E6E6E6"/>
<path d="M631.901 80.6787H458.699C456.762 80.6811 454.905 81.4539 453.535 82.8275C452.166 84.2011 451.395 86.0635 451.393 88.0061V360.573C451.396 362.516 452.167 364.378 453.536 365.751C454.905 367.125 456.762 367.898 458.699 367.901H631.901C633.838 367.898 635.695 367.126 637.064 365.752C638.434 364.378 639.204 362.516 639.207 360.573V88.0061C639.204 86.0635 638.434 84.2011 637.064 82.8275C635.695 81.4539 633.838 80.6811 631.901 80.6787Z" fill="white"/>
<path d="M463.176 66.7115C463.177 66.2368 463.365 65.7816 463.7 65.4459C464.034 65.1102 464.488 64.9214 464.961 64.9208H477.101C477.575 64.9208 478.029 65.1095 478.364 65.4453C478.699 65.7811 478.887 66.2366 478.887 66.7115C478.887 67.1864 478.699 67.6419 478.364 67.9777C478.029 68.3135 477.575 68.5022 477.101 68.5022H464.961C464.488 68.5016 464.034 68.3127 463.7 67.9771C463.365 67.6414 463.177 67.1862 463.176 66.7115Z" fill="#E6E6E6"/>
<path d="M483.171 66.7115C483.172 66.2368 483.36 65.7816 483.695 65.4459C484.03 65.1102 484.483 64.9214 484.957 64.9208H497.097C497.57 64.9208 498.024 65.1095 498.359 65.4453C498.694 65.7811 498.882 66.2366 498.882 66.7115C498.882 67.1864 498.694 67.6419 498.359 67.9777C498.024 68.3135 497.57 68.5022 497.097 68.5022H484.957C484.483 68.5016 484.03 68.3128 483.695 67.9771C483.36 67.6414 483.172 67.1862 483.171 66.7115Z" fill="#E6E6E6"/>
<path d="M603.144 66.7115C603.144 66.2368 603.332 65.7816 603.667 65.4459C604.002 65.1102 604.456 64.9214 604.929 64.9208H617.069C617.542 64.9208 617.996 65.1095 618.331 65.4453C618.666 65.7811 618.854 66.2366 618.854 66.7115C618.854 67.1864 618.666 67.6419 618.331 67.9777C617.996 68.3135 617.542 68.5022 617.069 68.5022H604.929C604.456 68.5016 604.002 68.3128 603.667 67.9771C603.332 67.6414 603.144 67.1862 603.144 66.7115Z" fill="#E6E6E6"/>
<path d="M569.301 362.285C569.301 364.169 569.266 366.046 569.18 367.901H458.699C456.762 367.898 454.905 367.125 453.536 365.751C452.167 364.378 451.396 362.516 451.393 360.573V223.38C484.294 228.712 514.227 245.618 535.832 271.07C557.437 296.522 569.302 328.858 569.301 362.285Z" fill="#F2F2F2"/>
<path d="M565.55 150.723H524.346C522.471 150.723 520.951 152.248 520.951 154.128V158.378C520.951 160.258 522.471 161.783 524.346 161.783H565.55C567.425 161.783 568.945 160.258 568.945 158.378V154.128C568.945 152.248 567.425 150.723 565.55 150.723Z" fill="#C23728"/>
<path d="M591.737 172.842H498.158C496.283 172.842 494.763 174.367 494.763 176.248V180.497C494.763 182.377 496.283 183.902 498.158 183.902H591.737C593.612 183.902 595.132 182.377 595.132 180.497V176.248C595.132 174.367 593.612 172.842 591.737 172.842Z" fill="#E6E6E6"/>
<path d="M591.737 194.961H498.158C496.283 194.961 494.763 196.486 494.763 198.367V202.616C494.763 204.496 496.283 206.021 498.158 206.021H591.737C593.612 206.021 595.132 204.496 595.132 202.616V198.367C595.132 196.486 593.612 194.961 591.737 194.961Z" fill="#E6E6E6"/>
<path d="M623.244 104.743H467.356C467.019 104.735 466.698 104.596 466.462 104.354C466.226 104.112 466.094 103.787 466.094 103.449C466.094 103.11 466.226 102.785 466.462 102.544C466.698 102.302 467.019 102.162 467.356 102.155H623.244C623.581 102.162 623.902 102.302 624.138 102.544C624.374 102.785 624.506 103.11 624.506 103.449C624.506 103.787 624.374 104.112 624.138 104.354C623.902 104.596 623.581 104.735 623.244 104.743Z" fill="#CACACA"/>
<path d="M475.673 98.4128C477.767 98.4128 479.465 96.6721 479.465 94.5248C479.465 92.3775 477.767 90.6368 475.673 90.6368C473.579 90.6368 471.881 92.3775 471.881 94.5248C471.881 96.6721 473.579 98.4128 475.673 98.4128Z" fill="#3F3D56"/>
<path d="M488.772 98.4128C490.866 98.4128 492.564 96.6721 492.564 94.5248C492.564 92.3775 490.866 90.6368 488.772 90.6368C486.678 90.6368 484.98 92.3775 484.98 94.5248C484.98 96.6721 486.678 98.4128 488.772 98.4128Z" fill="#3F3D56"/>
<path d="M501.871 98.4128C503.966 98.4128 505.663 96.6721 505.663 94.5248C505.663 92.3775 503.966 90.6368 501.871 90.6368C499.777 90.6368 498.08 92.3775 498.08 94.5248C498.08 96.6721 499.777 98.4128 501.871 98.4128Z" fill="#3F3D56"/>
<path d="M617.15 92.1389H608.665C608.497 92.1422 608.336 92.2116 608.219 92.3321C608.101 92.4526 608.035 92.6146 608.035 92.7834C608.035 92.9521 608.101 93.1141 608.219 93.2346C608.336 93.3551 608.497 93.4245 608.665 93.4278H617.15C617.319 93.4245 617.479 93.3551 617.597 93.2346C617.714 93.1141 617.78 92.9521 617.78 92.7834C617.78 92.6146 617.714 92.4526 617.597 92.3321C617.479 92.2116 617.319 92.1422 617.15 92.1389Z" fill="#3F3D56"/>
<path d="M617.15 94.558H608.665C608.497 94.5613 608.336 94.6307 608.219 94.7512C608.101 94.8717 608.035 95.0337 608.035 95.2024C608.035 95.3712 608.101 95.5332 608.219 95.6537C608.336 95.7742 608.497 95.8435 608.665 95.8469H617.15C617.319 95.8435 617.479 95.7742 617.597 95.6537C617.714 95.5332 617.78 95.3712 617.78 95.2024C617.78 95.0337 617.714 94.8717 617.597 94.7512C617.479 94.6307 617.319 94.5613 617.15 94.558Z" fill="#3F3D56"/>
<path d="M617.15 96.9738H608.665C608.497 96.9771 608.336 97.0465 608.219 97.167C608.101 97.2875 608.035 97.4495 608.035 97.6183C608.035 97.787 608.101 97.949 608.219 98.0695C608.336 98.19 608.497 98.2594 608.665 98.2627H617.15C617.319 98.2594 617.479 98.19 617.597 98.0695C617.714 97.949 617.78 97.787 617.78 97.6183C617.78 97.4495 617.714 97.2875 617.597 97.167C617.479 97.0465 617.319 96.9771 617.15 96.9738Z" fill="#3F3D56"/>
<path d="M364.224 223.482H273.844C272.566 223.484 271.34 223.995 270.438 224.903C269.535 225.811 269.028 227.042 269.03 228.324V371.526H369.051V228.324C369.052 227.688 368.927 227.059 368.685 226.471C368.442 225.883 368.086 225.349 367.638 224.9C367.19 224.45 366.658 224.094 366.072 223.85C365.486 223.607 364.858 223.482 364.224 223.482ZM319.338 304.848C316.512 304.835 313.805 303.703 311.806 301.698C309.808 299.693 308.679 296.978 308.666 294.144V277.627C308.668 274.789 309.794 272.069 311.795 270.063C313.796 268.058 316.509 266.931 319.338 266.931C322.167 266.931 324.88 268.058 326.881 270.063C328.883 272.069 330.008 274.789 330.011 277.627V294.144C329.997 296.978 328.869 299.694 326.87 301.698C324.872 303.703 322.165 304.835 319.338 304.848Z" fill="#E6E6E6"/>
<path d="M268.719 366.946V380.762C268.721 381.478 269.005 382.164 269.51 382.67C270.014 383.176 270.698 383.461 271.412 383.463H366.669C367.382 383.459 368.065 383.173 368.569 382.668C369.073 382.162 369.358 381.477 369.362 380.762V366.946L268.719 366.946Z" fill="#CCCCCC"/>
<path d="M513.884 0H127.547C124.228 0.0052964 121.046 1.33016 118.699 3.68426C116.352 6.03836 115.031 9.22969 115.026 12.5589V274.044C115.029 277.374 116.349 280.566 118.697 282.921C121.044 285.275 124.227 286.599 127.547 286.603H513.884C517.204 286.599 520.387 285.275 522.735 282.921C525.082 280.566 526.402 277.374 526.406 274.044V12.5589C526.4 9.22969 525.079 6.03836 522.732 3.68426C520.385 1.33016 517.204 0.00529433 513.884 0Z" fill="#E6E6E6"/>
<path d="M510.659 9.07111H130.775C128.998 9.07498 127.295 9.78577 126.039 11.0475C124.784 12.3093 124.079 14.019 124.079 15.8016V270.805C124.082 272.586 124.788 274.292 126.043 275.551C127.298 276.81 129 277.519 130.775 277.522H510.659C512.435 277.519 514.136 276.81 515.391 275.551C516.646 274.292 517.353 272.586 517.356 270.805V15.8016C517.356 14.019 516.651 12.3093 515.395 11.0475C514.14 9.78577 512.437 9.07498 510.659 9.07111Z" fill="white"/>
<path d="M517.356 15.8016V270.805C517.353 272.586 516.646 274.292 515.391 275.551C514.136 276.81 512.435 277.519 510.659 277.522H376.704C361.885 263.737 349.727 247.33 340.841 229.124C340.256 227.951 339.7 226.764 339.171 225.563C331.074 207.941 326.171 189.013 324.692 169.667C324.594 168.48 324.511 167.293 324.455 166.092C324.274 163.02 324.191 159.906 324.191 156.778C324.164 135.976 328.081 115.358 335.732 96.0225C336.191 94.8217 336.679 93.6347 337.18 92.4478C352.578 56.1603 380.402 26.589 415.629 9.07111H510.659C512.437 9.07498 514.14 9.78577 515.395 11.0475C516.651 12.3093 517.356 14.019 517.356 15.8016Z" fill="#C23728"/>
<path d="M491.563 44.2049H136.107C135.737 44.197 135.385 44.0442 135.127 43.7791C134.868 43.5141 134.723 43.158 134.723 42.7871C134.723 42.4162 134.868 42.0601 135.127 41.7951C135.385 41.5301 135.737 41.3772 136.107 41.3693H491.563C491.933 41.3772 492.285 41.5301 492.544 41.7951C492.802 42.0601 492.947 42.4162 492.947 42.7871C492.947 43.158 492.802 43.5141 492.544 43.7791C492.285 44.0442 491.933 44.197 491.563 44.2049Z" fill="#CACACA"/>
<path d="M160.303 34.1304C164.878 34.1304 168.587 30.3274 168.587 25.6363C168.587 20.9451 164.878 17.1422 160.303 17.1422C155.728 17.1422 152.019 20.9451 152.019 25.6363C152.019 30.3274 155.728 34.1304 160.303 34.1304Z" fill="#3F3D56"/>
<path d="M188.921 34.1304C193.496 34.1304 197.205 30.3274 197.205 25.6363C197.205 20.9451 193.496 17.1422 188.921 17.1422C184.346 17.1422 180.637 20.9451 180.637 25.6363C180.637 30.3274 184.346 34.1304 188.921 34.1304Z" fill="#3F3D56"/>
<path d="M217.539 34.1304C222.114 34.1304 225.823 30.3274 225.823 25.6363C225.823 20.9451 222.114 17.1422 217.539 17.1422C212.964 17.1422 209.255 20.9451 209.255 25.6363C209.255 30.3274 212.964 34.1304 217.539 34.1304Z" fill="#3F3D56"/>
<path d="M474.333 19.2475H454.004C453.602 19.2555 453.218 19.4217 452.936 19.7103C452.653 19.999 452.495 20.3871 452.495 20.7914C452.495 21.1956 452.653 21.5837 452.936 21.8724C453.218 22.161 453.602 22.3272 454.004 22.3352H474.333C474.736 22.3272 475.12 22.161 475.402 21.8724C475.684 21.5837 475.842 21.1956 475.842 20.7914C475.842 20.3871 475.684 19.999 475.402 19.7103C475.12 19.4217 474.736 19.2555 474.333 19.2475Z" fill="#3F3D56"/>
<path d="M474.333 25.0427H454.004C453.602 25.0507 453.218 25.2168 452.936 25.5055C452.653 25.7942 452.495 26.1823 452.495 26.5865C452.495 26.9908 452.653 27.3789 452.936 27.6676C453.218 27.9562 453.602 28.1224 454.004 28.1304H474.333C474.736 28.1224 475.12 27.9562 475.402 27.6676C475.684 27.3789 475.842 26.9908 475.842 26.5865C475.842 26.1823 475.684 25.7942 475.402 25.5055C475.12 25.2168 474.736 25.0507 474.333 25.0427Z" fill="#3F3D56"/>
<path d="M474.333 30.8302H454.004C453.602 30.8382 453.218 31.0044 452.936 31.293C452.653 31.5817 452.495 31.9698 452.495 32.3741C452.495 32.7783 452.653 33.1664 452.936 33.4551C453.218 33.7437 453.602 33.9099 454.004 33.9179H474.333C474.736 33.9099 475.12 33.7437 475.402 33.4551C475.684 33.1664 475.842 32.7783 475.842 32.3741C475.842 31.9698 475.684 31.5817 475.402 31.293C475.12 31.0044 474.736 30.8382 474.333 30.8302Z" fill="#3F3D56"/>
<path d="M244.943 127.034H195.236C193.361 127.034 191.841 128.559 191.841 130.439V135.747C191.841 137.627 193.361 139.152 195.236 139.152H244.943C246.818 139.152 248.338 137.627 248.338 135.747V130.439C248.338 128.559 246.818 127.034 244.943 127.034Z" fill="#C23728"/>
<path d="M273.636 151.269H166.543C164.668 151.269 163.148 152.794 163.148 154.674V159.982C163.148 161.862 164.668 163.387 166.543 163.387H273.636C275.511 163.387 277.031 161.862 277.031 159.982V154.674C277.031 152.794 275.511 151.269 273.636 151.269Z" fill="#E6E6E6"/>
<path d="M273.636 175.504H166.543C164.668 175.504 163.148 177.029 163.148 178.91V184.217C163.148 186.097 164.668 187.622 166.543 187.622H273.636C275.511 187.622 277.031 186.097 277.031 184.217V178.91C277.031 177.029 275.511 175.504 273.636 175.504Z" fill="#E6E6E6"/>
<path d="M172.443 262.902C172.451 267.893 171.565 272.845 169.826 277.522H130.775C129 277.519 127.298 276.81 126.043 275.551C124.788 274.292 124.082 272.586 124.079 270.805V221.542C126.261 221.188 128.467 221.01 130.678 221.011C136.162 221.011 141.594 222.094 146.661 224.199C151.728 226.304 156.333 229.39 160.211 233.28C164.089 237.17 167.166 241.788 169.264 246.87C171.363 251.953 172.443 257.401 172.443 262.902Z" fill="#C23728"/>
<path opacity="0.2" d="M517.704 96.0226V92.4479H457.965V51.0179H454.415V92.4479H385.948V51.0179H382.398V92.4479H337.18C336.679 93.6348 336.191 94.8218 335.732 96.0226H382.398V166.092H324.455C324.511 167.293 324.594 168.48 324.692 169.667H382.398V225.563H339.171C339.7 226.764 340.257 227.951 340.841 229.124H382.398V276.111H385.948V229.124H454.415V276.111H457.965V229.124H517.704V225.563H457.965C457.965 218.223 459.407 210.954 462.208 204.172C465.008 197.391 469.113 191.229 474.288 186.038C479.463 180.848 485.606 176.731 492.368 173.922C499.129 171.113 506.376 169.667 513.694 169.667H517.704V166.092H457.965V96.0226H517.704ZM454.415 225.563H385.948V169.667H454.415V225.563ZM454.415 166.092H385.948V164.696C385.948 146.482 393.161 129.015 406.001 116.136C418.842 103.258 436.257 96.0226 454.415 96.0226L454.415 166.092Z" fill="black"/>
<path d="M206.545 181.766V141.943C206.545 135.831 204.124 129.968 199.815 125.646C195.506 121.323 189.661 118.895 183.566 118.895H99.4487C93.3542 118.895 87.5094 121.323 83.1999 125.646C78.8904 129.968 76.4694 135.831 76.4694 141.943V360.414C76.4694 366.527 78.8904 372.39 83.1999 376.712C87.5094 381.034 93.3542 383.463 99.4487 383.463H183.566C186.584 383.463 189.572 382.866 192.36 381.708C195.148 380.55 197.681 378.852 199.815 376.712C201.949 374.572 203.641 372.031 204.796 369.235C205.951 366.438 206.545 363.441 206.545 360.414V210.113C206.93 210.113 207.298 209.96 207.57 209.687C207.842 209.414 207.995 209.045 207.995 208.659V183.22C207.995 182.834 207.842 182.465 207.57 182.192C207.299 181.919 206.93 181.766 206.545 181.766Z" fill="#E6E6E6"/>
<path d="M201.655 142.102V360.257C201.656 364.788 199.873 369.137 196.696 372.358C193.518 375.579 189.201 377.412 184.684 377.46C184.622 377.466 184.559 377.469 184.496 377.468H99.9692C95.4186 377.467 91.0544 375.654 87.8365 372.426C84.6187 369.199 82.8108 364.821 82.8104 360.257V142.102C82.8108 137.537 84.6187 133.16 87.8365 129.933C91.0544 126.705 95.4185 124.892 99.9692 124.891H110.227C109.723 126.133 109.531 127.481 109.667 128.815C109.804 130.149 110.266 131.429 111.012 132.542C111.757 133.655 112.764 134.567 113.944 135.198C115.124 135.829 116.44 136.16 117.778 136.161H165.968C167.304 136.157 168.618 135.825 169.796 135.193C170.974 134.561 171.98 133.648 172.724 132.536C173.469 131.423 173.93 130.145 174.067 128.812C174.204 127.479 174.013 126.133 173.511 124.891H184.496C189.047 124.892 193.411 126.705 196.629 129.932C199.847 133.16 201.655 137.537 201.655 142.102Z" fill="white"/>
<path d="M184.895 370.734C184.895 372.994 184.825 375.236 184.684 377.46C184.622 377.466 184.559 377.469 184.496 377.467H99.9692C95.4186 377.467 91.0544 375.654 87.8365 372.426C84.6187 369.199 82.8108 364.821 82.8104 360.257V263.037C110.351 264.43 136.304 276.385 155.304 296.43C174.305 316.474 184.898 343.076 184.895 370.734Z" fill="#F2F2F2"/>
<path d="M76.9342 204.045C76.4156 204.044 75.9185 203.837 75.5517 203.469C75.185 203.102 74.9788 202.603 74.9781 202.083V188.741C74.9781 188.221 75.1842 187.722 75.5511 187.354C75.9179 186.986 76.4155 186.779 76.9342 186.779C77.453 186.779 77.9506 186.986 78.3174 187.354C78.6842 187.722 78.8903 188.221 78.8903 188.741V202.083C78.8897 202.603 78.6834 203.102 78.3167 203.469C77.95 203.837 77.4528 204.044 76.9342 204.045Z" fill="#E6E6E6"/>
<path d="M152.611 193.392H131.854C129.979 193.392 128.459 194.917 128.459 196.797V202.104C128.459 203.985 129.979 205.51 131.854 205.51H152.611C154.486 205.51 156.006 203.985 156.006 202.104V196.797C156.006 194.917 154.486 193.392 152.611 193.392Z" fill="#C23728"/>
<path d="M181.304 217.627H103.161C101.286 217.627 99.766 219.152 99.766 221.032V226.34C99.766 228.22 101.286 229.745 103.161 229.745H181.304C183.179 229.745 184.699 228.22 184.699 226.34V221.032C184.699 219.152 183.179 217.627 181.304 217.627Z" fill="#E6E6E6"/>
<path d="M181.304 241.862H103.161C101.286 241.862 99.766 243.387 99.766 245.267V250.575C99.766 252.455 101.286 253.98 103.161 253.98H181.304C183.179 253.98 184.699 252.455 184.699 250.575V245.267C184.699 243.387 183.179 241.862 181.304 241.862Z" fill="#E6E6E6"/>
<path d="M76.543 178.147C76.0244 178.146 75.5272 177.939 75.1605 177.571C74.7938 177.203 74.5875 176.705 74.5869 176.185V162.843C74.5869 162.323 74.793 161.824 75.1598 161.456C75.5267 161.088 76.0242 160.881 76.543 160.881C77.0618 160.881 77.5593 161.088 77.9262 161.456C78.293 161.824 78.4991 162.323 78.4991 162.843V176.185C78.4985 176.705 78.2922 177.203 77.9255 177.571C77.5588 177.939 77.0616 178.146 76.543 178.147Z" fill="#E6E6E6"/>
<path d="M128.575 127.135C128.576 126.615 128.782 126.117 129.149 125.749C129.516 125.381 130.013 125.174 130.531 125.173H143.833C144.352 125.173 144.849 125.38 145.216 125.748C145.583 126.116 145.789 126.615 145.789 127.135C145.789 127.656 145.583 128.155 145.216 128.523C144.849 128.891 144.352 129.097 143.833 129.097H130.531C130.013 129.097 129.516 128.89 129.149 128.522C128.782 128.154 128.576 127.656 128.575 127.135Z" fill="white"/>
<path d="M76.9342 226.803C76.4156 226.803 75.9185 226.596 75.5517 226.228C75.185 225.86 74.9788 225.362 74.9781 224.842V211.5C74.9781 210.98 75.1842 210.481 75.5511 210.113C75.9179 209.745 76.4155 209.538 76.9342 209.538C77.453 209.538 77.9506 209.745 78.3174 210.113C78.6842 210.481 78.8903 210.98 78.8903 211.5V224.842C78.8897 225.362 78.6834 225.86 78.3167 226.228C77.95 226.596 77.4528 226.803 76.9342 226.803Z" fill="#E6E6E6"/>
<path d="M151.266 129.097C152.346 129.097 153.222 128.219 153.222 127.135C153.222 126.052 152.346 125.173 151.266 125.173C150.186 125.173 149.31 126.052 149.31 127.135C149.31 128.219 150.186 129.097 151.266 129.097Z" fill="white"/>
<path d="M672.068 383.457L0.93169 383.699C0.685072 383.698 0.448804 383.599 0.274671 383.424C0.100538 383.249 0.00274658 383.012 0.00274658 382.764C0.00274658 382.517 0.100538 382.28 0.274671 382.104C0.448804 381.929 0.685072 381.831 0.93169 381.83L672.068 381.589C672.316 381.589 672.552 381.687 672.727 381.862C672.902 382.038 673 382.275 673 382.523C673 382.771 672.902 383.009 672.727 383.184C672.552 383.359 672.316 383.457 672.068 383.457Z" fill="#CACACA"/>
<path d="M286.978 177.446L283.448 178.204C283.424 176.723 283.24 175.249 282.899 173.808C282.578 175.573 281.901 177.253 280.911 178.747L260.664 183.084L241.226 162.509C241.196 152.221 246.892 144.403 257.105 144.403C257.72 144.403 258.358 144.433 259.003 144.492C264.521 143.566 270.181 144.823 274.793 147.999C279.405 151.175 282.609 156.022 283.729 161.519C290.968 168.668 288.342 172.871 286.978 177.446Z" fill="#2F2E41"/>
<path d="M296.932 418.065H304.276L307.77 389.652L296.93 389.653L296.932 418.065Z" fill="#FFB6B6"/>
<path d="M295.11 414.431L306.72 413.736V418.725L317.757 426.371C318.302 426.749 318.713 427.291 318.929 427.919C319.145 428.548 319.155 429.229 318.958 429.863C318.761 430.497 318.367 431.052 317.833 431.446C317.3 431.84 316.654 432.052 315.992 432.052H302.17L299.788 427.117L298.858 432.052H293.646L295.11 414.431Z" fill="#2F2E41"/>
<path d="M210.891 410.047L217.279 413.682L234.297 390.7L224.87 385.335L210.891 410.047Z" fill="#FFB6B6"/>
<path d="M211.095 405.985L221.535 411.127L219.08 415.466L224.918 427.58C225.206 428.178 225.297 428.853 225.175 429.506C225.054 430.159 224.728 430.757 224.244 431.211C223.761 431.665 223.145 431.952 222.487 432.031C221.829 432.109 221.164 431.974 220.587 431.647L208.566 424.805L208.922 419.334L205.685 423.166L201.152 420.586L211.095 405.985Z" fill="#2F2E41"/>
<path d="M324.078 182.423C323.137 182.56 322.237 182.902 321.442 183.425C320.647 183.948 319.976 184.639 319.476 185.451C318.976 186.262 318.66 187.173 318.549 188.121C318.439 189.068 318.536 190.028 318.836 190.933L307.597 200.69L311.843 208.986L327.521 194.984C329.003 194.379 330.214 193.249 330.922 191.809C331.629 190.369 331.786 188.718 331.362 187.17C330.937 185.622 329.962 184.283 328.619 183.409C327.277 182.534 325.661 182.183 324.078 182.423Z" fill="#FFB6B6"/>
<path d="M312.761 215.973C309.012 221.668 300.611 227.168 288.141 232.043C287.454 232.32 286.716 232.45 285.976 232.426C285.235 232.402 284.508 232.223 283.839 231.902C279.134 229.754 276.118 221.769 275.835 220.995L266.721 208.664C266.559 208.484 262.297 203.633 262.785 198.863C262.895 197.864 263.219 196.9 263.735 196.038C264.252 195.176 264.948 194.437 265.776 193.87C272.675 188.741 288.137 206.557 290.143 208.925L300.234 202.759L307.587 199.468L313.523 192.224L321.88 200.794L314.364 212.788C313.963 213.912 313.424 214.982 312.761 215.973Z" fill="#2F2E41"/>
<path d="M286.551 237.822C286.551 237.822 308.145 272.322 304.233 276.245C300.32 280.169 294.233 281.2 294.233 281.2L280.76 263.689L286.551 237.822Z" fill="#2F2E41"/>
<path d="M267.458 190.704L277.635 197.609C282.366 200.819 285.924 205.488 287.77 210.909C289.615 216.33 289.648 222.206 287.863 227.648L284.998 236.383L267.458 190.704Z" fill="#2F2E41"/>
<path d="M249.462 284.878L248.101 289.632L243.458 346.953L220.262 390.313L231.333 398.244L262.964 356.999L275.476 316.047L295.123 406.705L309.885 405.647L299.633 279.951L280.179 244.571L249.462 284.878Z" fill="#2F2E41"/>
<path d="M265.727 192.44L279.892 204.051C283.001 206.599 285.24 210.057 286.296 213.942C286.776 215.706 287.003 217.529 286.973 219.358L286.551 244.571L299.538 279.385C299.538 279.385 264.328 292.726 259.634 280.954C254.939 269.182 265.727 192.44 265.727 192.44Z" fill="#C23728"/>
<path d="M269.964 287.065C252.375 287.065 248.088 287.198 247.81 287.141L247.532 287.085V276.474L251.809 257.411C251.309 251.492 250.138 243.688 250.244 237.006C250.628 212.854 249.444 189.262 249.444 189.262L258.754 180.643L262.983 183.403L270.828 191.271C279.947 213.78 287.183 234.971 287.228 236.333L287.802 259.765L285.454 269.182C274.835 276.701 284.538 287.065 269.964 287.065Z" fill="#2F2E41"/>
<path opacity="0.2" d="M253.39 210.302L251.251 223.689L265.727 229.678L253.39 210.302Z" fill="black"/>
<path d="M267.972 178.131C275.8 178.131 282.145 171.767 282.145 163.916C282.145 156.065 275.8 149.701 267.972 149.701C260.145 149.701 253.8 156.065 253.8 163.916C253.8 171.767 260.145 178.131 267.972 178.131Z" fill="#FFB6B6"/>
<path opacity="0.2" d="M244.225 236.043C247.997 240.424 253.113 243.424 258.77 244.57C264.426 245.717 270.303 244.946 275.475 242.379L278.559 240.848L244.225 236.043Z" fill="black"/>
<path d="M293.543 232.771C292.91 232.059 292.13 231.494 291.257 231.117C290.383 230.739 289.438 230.559 288.488 230.588C287.537 230.616 286.605 230.854 285.756 231.283C284.907 231.713 284.162 232.324 283.574 233.073L269.264 229.044L264.701 237.169L284.99 242.574C286.31 243.482 287.917 243.872 289.505 243.671C291.093 243.47 292.553 242.691 293.607 241.483C294.662 240.275 295.237 238.72 295.225 237.115C295.213 235.509 294.615 233.963 293.543 232.771Z" fill="#FFB6B6"/>
<path d="M259.394 241.788C252.59 241.788 243.385 237.787 232.457 230.038C231.848 229.615 231.333 229.069 230.945 228.436C230.557 227.803 230.305 227.096 230.204 226.36C229.397 221.238 234.379 214.313 234.867 213.649L240.104 199.226C240.164 198.992 241.851 192.751 246.088 190.531C246.98 190.072 247.96 189.812 248.962 189.769C249.963 189.727 250.962 189.902 251.89 190.283C259.96 193.23 253.658 215.989 252.793 218.974L263.485 224.021L270.274 228.362L279.572 229.337L277.048 241.055L262.927 241.374C261.771 241.658 260.584 241.797 259.394 241.788Z" fill="#2F2E41"/>
<path d="M284.968 154.564C283.833 156.045 279.925 157.354 275.282 158.41C275.289 158.313 275.289 158.217 275.289 158.12C275.266 156.639 275.082 155.165 274.741 153.724C274.42 155.488 273.743 157.169 272.753 158.663C272.679 158.775 272.605 158.886 272.523 158.998C268.54 159.786 264.328 160.396 261.028 160.805C263.297 169.003 271.997 175.727 271.055 180.711L245.565 185.933C245.721 183.862 245.556 181.779 245.075 179.759C244.588 182.425 243.299 184.878 241.382 186.788L239.216 187.235L238.571 184.044C232.979 170.572 240.774 156.781 253.545 149.647C255.822 146.224 259.357 143.843 263.379 143.027L266.56 142.372C268.567 141.96 270.635 141.949 272.646 142.339C274.658 142.729 276.572 143.512 278.282 144.644C279.991 145.776 281.461 147.235 282.608 148.937C283.756 150.639 284.557 152.551 284.968 154.564Z" fill="#2F2E41"/>
<path d="M345.859 412.278L346.236 403.777C350.165 401.671 354.548 400.558 359.003 400.536C352.871 405.564 353.638 415.257 349.48 422.019C348.168 424.118 346.401 425.894 344.311 427.215C342.221 428.536 339.861 429.368 337.407 429.65L332.275 432.802C331.571 428.864 331.726 424.821 332.73 420.95C333.734 417.079 335.563 413.472 338.09 410.378C339.526 408.656 341.171 407.122 342.988 405.813C344.217 409.064 345.859 412.278 345.859 412.278Z" fill="#F2F2F2"/>
<path d="M358.3 433H179.605C179.358 432.999 179.122 432.9 178.948 432.725C178.773 432.55 178.676 432.313 178.676 432.066C178.676 431.818 178.773 431.581 178.948 431.406C179.122 431.231 179.358 431.132 179.605 431.131H358.3C358.422 431.131 358.544 431.155 358.657 431.201C358.77 431.248 358.873 431.317 358.96 431.404C359.047 431.491 359.116 431.594 359.163 431.707C359.21 431.821 359.234 431.943 359.234 432.066C359.234 432.188 359.21 432.31 359.163 432.424C359.116 432.537 359.047 432.64 358.96 432.727C358.873 432.814 358.77 432.883 358.657 432.93C358.544 432.976 358.422 433 358.3 433Z" fill="#CACACA"/>
</g>
<defs>
<clipPath id="clip0_1140_76">
<rect width="673" height="433" fill="white"/>
</clipPath>
</defs>
</svg>
