<svg id="Camada_1" data-name="Camada 1" xmlns="http://www.w3.org/2000/svg" xmlns:xlink="http://www.w3.org/1999/xlink" viewBox="0 0 861.18 461.36"><defs><style>.cls-1{fill:none;}.cls-2{clip-path:url(#clip-path);}.cls-3{fill:#fff;}</style><clipPath id="clip-path" transform="translate(-119.02 -308.94)"><rect class="cls-1" x="119.05" y="308.9" width="861.3" height="329.8"/></clipPath></defs><g id="Camada_1-2" data-name="Camada 1"><g class="cls-2"><path class="cls-3" d="M828.15,507.8V622.5c0,12.1-4,16.1-16.2,16.1h-20.2c-10.2-.1-14.5-4.3-14.5-14.4V327.8c0-8.8,2-12.1,10.2-14.8,9.6-3.1,19.7-3.5,29.7-4,6-.3,10.4,5.1,10.9,12,.2,3.2,0,6.5,0,9.8V489c7.2-8,13.9-15.2,20.3-22.6,6.7-7.8,13.1-15.8,19.8-23.6,9.7-11.2,19.6-22.2,29.3-33.4,4.2-4.8,9.6-6.8,15.9-6.8,9.5.1,19.1-.1,28.7.1,3.9.1,8.1.1,10.2,4.8,2,4.3.8,7.9-2,11.1-7,8.2-14.1,16.2-21.2,24.3q-23.1,26.4-46.3,52.8c-1.8,2.1-1.5,3.5.1,5.5l72.3,93c7,8.9,14.2,17.7,21.2,26.5,2.9,3.7,5.4,7.8,2.7,12.7-2.4,4.4-6.7,5-11.1,5-8.7.1-17.4-.1-26.1,0-7.8.1-13.5-2.8-18.4-9.2-17.4-22.7-35.3-45-52.9-67.5-13.2-17-26.3-34.1-39.5-51.1-.4-.6-1.3-1.2-2.9-2.8" transform="translate(-119.02 -308.94)"/></g><g class="cls-2"><path class="cls-3" d="M614.35,460.4v-101c0-9.6,1.9-12.5,11.2-15.3a103.28,103.28,0,0,1,27.1-4c7.8-.1,12.6,4.8,12.6,12.8,0,14.8.4,29.5-.2,44.3-.2,6.1,1.8,7.1,7.2,6.9,12.8-.4,25.6-.2,38.4-.1,8.5,0,13.2,4.6,13.2,13,0,6.3.1,12.6,0,18.9-.1,7.4-5,12.4-12.5,12.4-13.7.1-27.4.2-41-.1-3.8-.1-5.2.7-5.2,4.9.2,37.4-.2,74.7.2,112.1.2,15.7,13.4,30.2,29.4,29.2,5.4-.3,10.9-.2,16.3,0,7,.2,14.2,5.4,13,13.3a59.8,59.8,0,0,0,0,16.9c.9,6.7-4.7,11.9-11.6,12.6a201.76,201.76,0,0,1-25.8,1.3c-33.9-.5-61-23.3-69.5-55.6a93.13,93.13,0,0,1-2.7-24.2c-.1-32.7-.1-65.6-.1-98.3" transform="translate(-119.02 -308.94)"/></g><g class="cls-2"><path class="cls-3" d="M323.65,322c0-7.8-4.7-13.7-11.7-13-9.6,1-19.5.7-28.9,4.4-7.7,3.1-10.2,6.4-10.2,14.7,0,22.8-.2,45.6.1,68.4.1,5.3-1.6,6.3-6.5,6.2-15-.3-30-.2-45-.1a88,88,0,0,0-24,3.3c-29,8.3-50.4,26.1-64.1,53-12.7,24.9-16.5,51.1-13.2,78.9,2.2,19.4,7.9,37.4,18.5,53.7,20.1,31,48.7,46.9,85.8,47.1,28.4.1,56.9,0,85.3,0,9.3,0,13.9-4.5,13.9-13.7V322m-50.8,199.3c0,22.6-.1,45.1.1,67.7,0,4.3-1.1,5.4-5.4,5.3-14.3-.2-28.6-.2-43-.1-20.3.1-34.6-10.1-44.1-27-11.4-20.2-12.6-42.2-9.4-64.7,2.3-16.3,8.3-30.6,20-42.4,8.8-8.8,19.7-12.6,31.6-13.1,14.9-.6,29.9,0,44.9-.2,4.3-.1,5.4,1.2,5.4,5.4-.2,23.1-.1,46.1-.1,69.1" transform="translate(-119.02 -308.94)"/></g><g class="cls-2"><path class="cls-3" d="M567.45,463.8c-3.2-18.3-11.7-33.1-26.7-44.2-12.4-9.2-26-14.7-41.7-15.8-21.3-1.6-42.6-2.8-63.6,1.7-34.1,7.3-58.9,35.1-58.5,72,.1,14.6,0,29.1,0,43.7,0,16.1-.3,32.2.1,48.2.4,16.5,6.6,31.1,17.7,43.3,16.5,18.2,38,24.9,61.9,26,11.3.5,22.4-1.2,33.6-1.5a122.5,122.5,0,0,0,36.9-6.6c7.4-2.6,10.2-7,10.2-15,0-5.4.1-10.9,0-16.3-.2-6.4-4.2-10-10.5-10.3-9.5-.3-18.4,3.4-27.7,4.4-8.1.9-16.2.1-24.3,1.9-5.8,1.3-12.1.5-18.2.2-11.8-.7-20.6-6.5-26-16.9-3.8-7.4-2.4-15.5-2.8-23.4-.2-4.4,1.4-5.2,5.5-5.3,23.1-.5,46.4,1.6,69.5-1.2,21.2-2.5,38.6-11.9,51.5-28.8,12.7-16.7,16.7-35.5,13.1-56.1m-68.2,40.8a39.4,39.4,0,0,1-13.1,2.4c-8.3-.1-16.5,0-24.8,0h-29.3c-1.5,0-4.1.9-4-1.8.4-12.5-1.8-25.1,1.1-37.4,3.2-13.1,12.6-20.8,25.3-21.6,13.7-.9,27.6-1.8,41.4.9,11.9,2.3,20.9,14,22,25.9,1.6,17-9.2,28.3-18.6,31.6" transform="translate(-119.02 -308.94)"/></g></g><g id="Camada_3" data-name="Camada 3"><path class="cls-3" d="M162.6,744v21.5a4.78,4.78,0,0,1-4.8,4.8h-.2a4.94,4.94,0,0,1-3.4-1.4,4.6,4.6,0,0,1-1.4-3.4V717.8a26.29,26.29,0,0,1,26.3-26.3,25,25,0,0,1,18.6,7.7,25.36,25.36,0,0,1,7.7,18.6,25.69,25.69,0,0,1-7.7,18.6,25.36,25.36,0,0,1-18.6,7.7l-16.5-.1Zm0-9.7h16.6a16.56,16.56,0,0,0,16.6-16.6A16.56,16.56,0,0,0,179.2,701a16.56,16.56,0,0,0-16.6,16.7Z" transform="translate(-119.02 -308.94)"/><path class="cls-3" d="M280.6,703a39.39,39.39,0,0,1-55.8,55.6A39.39,39.39,0,0,1,280.6,703Zm-48.9,6.8a29.69,29.69,0,1,0,21-8.7A28.62,28.62,0,0,0,231.7,709.8Z" transform="translate(-119.02 -308.94)"/><path class="cls-3" d="M342.8,755.7a14.58,14.58,0,0,0-4.4-10.6,14,14,0,0,0-9.5-4.3H311.8v24.7a4.78,4.78,0,0,1-4.8,4.8h-.1a4.76,4.76,0,0,1-3.4-1.4,4.6,4.6,0,0,1-1.4-3.4V710.4a17.89,17.89,0,0,1,5.5-13.3,18.36,18.36,0,0,1,13.4-5.6h6.8a24.68,24.68,0,0,1,17.4,42.1,29.11,29.11,0,0,1-2.7,2.4,20.18,20.18,0,0,1,2.7,2.4,23.71,23.71,0,0,1,7.2,17.4v9.7a4.78,4.78,0,0,1-4.8,4.8h-.1a4.94,4.94,0,0,1-3.4-1.4,4.6,4.6,0,0,1-1.4-3.4l.1-9.8Zm-15-24.6a14.89,14.89,0,0,0,10.6-4.3,14.58,14.58,0,0,0,4.4-10.6,14.8,14.8,0,0,0-4.4-10.7,14.49,14.49,0,0,0-10.6-4.3h-6a9.92,9.92,0,0,0-7.2,2.6,8.73,8.73,0,0,0-2.6,4.9,11,11,0,0,0-.2,2.2v20.3l16-.1Z" transform="translate(-119.02 -308.94)"/><path class="cls-3" d="M405.6,696.3a4.76,4.76,0,0,1-1.4,3.4,4.6,4.6,0,0,1-3.4,1.4H386.4v64.4a4.78,4.78,0,0,1-4.8,4.8h-.1a4.76,4.76,0,0,1-3.4-1.4,4.6,4.6,0,0,1-1.4-3.4V701.1H362.3a4.94,4.94,0,0,1-3.4-1.4,4.76,4.76,0,0,1-1.4-3.4v-.1a4.78,4.78,0,0,1,4.8-4.8h38.4a4.78,4.78,0,0,1,4.8,4.8l.1.1Z" transform="translate(-119.02 -308.94)"/><path class="cls-3" d="M464.6,765.4a4.78,4.78,0,0,1-4.8,4.8h-.2a4.94,4.94,0,0,1-3.4-1.4,4.6,4.6,0,0,1-1.4-3.4v-25H423.1v25a4.78,4.78,0,0,1-4.8,4.8h-.2a4.94,4.94,0,0,1-3.4-1.4,4.6,4.6,0,0,1-1.4-3.4V717a25.55,25.55,0,1,1,51.1,0l.2,48.4Zm-9.7-34.6V717a15.17,15.17,0,0,0-4.6-11.2,15.48,15.48,0,0,0-11.3-4.7A15.88,15.88,0,0,0,423.2,717v13.8Z" transform="translate(-119.02 -308.94)"/><path class="cls-3" d="M486.4,752.6a7.87,7.87,0,0,0,2.3,5.6,7.32,7.32,0,0,0,5.6,2.3h15.3a4.78,4.78,0,0,1,4.8,4.8v.1a4.78,4.78,0,0,1-4.8,4.8H494.3a17.41,17.41,0,0,1-17.5-17.5V696.3a4.78,4.78,0,0,1,4.8-4.8h.2a4.94,4.94,0,0,1,3.4,1.4,4.76,4.76,0,0,1,1.4,3.4l-.2,56.3Z" transform="translate(-119.02 -308.94)"/><path class="cls-3" d="M559.3,726h26.6a4.94,4.94,0,0,1,3.4,1.4,4.76,4.76,0,0,1,1.4,3.4v.1a4.78,4.78,0,0,1-4.8,4.8H559.3v17a7.87,7.87,0,0,0,2.3,5.6,7.32,7.32,0,0,0,5.6,2.3h18.7a4.94,4.94,0,0,1,3.4,1.4,4.76,4.76,0,0,1,1.4,3.4v.1a4.78,4.78,0,0,1-4.8,4.8H567.2a17.41,17.41,0,0,1-17.5-17.5V709a17.41,17.41,0,0,1,17.5-17.5h18.7a4.94,4.94,0,0,1,3.4,1.4,4.6,4.6,0,0,1,1.4,3.4v.1a4.78,4.78,0,0,1-4.8,4.8H567.2a7.87,7.87,0,0,0-5.6,2.3,7.32,7.32,0,0,0-2.3,5.6Z" transform="translate(-119.02 -308.94)"/><path class="cls-3" d="M609,765.4a4.78,4.78,0,0,1-4.8,4.8H604a4.94,4.94,0,0,1-3.4-1.4,4.6,4.6,0,0,1-1.4-3.4V715.1a23.56,23.56,0,0,1,23.6-23.6,22.46,22.46,0,0,1,18.8,9.3,22.46,22.46,0,0,1,18.8-9.3A23.56,23.56,0,0,1,684,715.1v50.3a4.78,4.78,0,0,1-4.8,4.8h-.1a4.76,4.76,0,0,1-3.4-1.4,4.6,4.6,0,0,1-1.4-3.4V715.1a14,14,0,0,0-14-14,13.84,13.84,0,0,0-9.9,4.1,13.14,13.14,0,0,0-4.1,9.9v50.3a4.76,4.76,0,0,1-1.4,3.4,4.6,4.6,0,0,1-3.4,1.4h-.1a4.76,4.76,0,0,1-3.4-1.4,4.6,4.6,0,0,1-1.4-3.4V715.1a14,14,0,0,0-14-14,13.67,13.67,0,0,0-9.9,4.1,13.14,13.14,0,0,0-4.1,9.9l.4,50.3Z" transform="translate(-119.02 -308.94)"/><path class="cls-3" d="M705.5,744v21.5a4.78,4.78,0,0,1-4.8,4.8h-.2a4.94,4.94,0,0,1-3.4-1.4,4.6,4.6,0,0,1-1.4-3.4V717.8A26.29,26.29,0,0,1,722,691.5a25,25,0,0,1,18.6,7.7,25.36,25.36,0,0,1,7.7,18.6,25.69,25.69,0,0,1-7.7,18.6,25.36,25.36,0,0,1-18.6,7.7l-16.5-.1Zm0-9.7H722a16.56,16.56,0,0,0,16.6-16.6A16.56,16.56,0,0,0,722,701a16.56,16.56,0,0,0-16.6,16.7v16.6Z" transform="translate(-119.02 -308.94)"/><path class="cls-3" d="M798.5,755.7a14.58,14.58,0,0,0-4.4-10.6,14,14,0,0,0-9.5-4.3H767.5v24.7a4.78,4.78,0,0,1-4.8,4.8h-.1a4.76,4.76,0,0,1-3.4-1.4,4.6,4.6,0,0,1-1.4-3.4V710.4a17.89,17.89,0,0,1,5.5-13.3,18.36,18.36,0,0,1,13.4-5.6h6.8a24.68,24.68,0,0,1,17.4,42.1,29.11,29.11,0,0,1-2.7,2.4,29.11,29.11,0,0,1,2.7,2.4,23.71,23.71,0,0,1,7.2,17.4v9.7a4.78,4.78,0,0,1-4.8,4.8h-.1a4.94,4.94,0,0,1-3.4-1.4,4.6,4.6,0,0,1-1.4-3.4l.1-9.8Zm-15-24.6a14.89,14.89,0,0,0,10.6-4.3,14.58,14.58,0,0,0,4.4-10.6,14.8,14.8,0,0,0-4.4-10.7,14.49,14.49,0,0,0-10.6-4.3h-6a9.92,9.92,0,0,0-7.2,2.6,8.73,8.73,0,0,0-2.6,4.9,11,11,0,0,0-.2,2.2v20.3l16-.1Z" transform="translate(-119.02 -308.94)"/><path class="cls-3" d="M826.7,726h26.6a4.94,4.94,0,0,1,3.4,1.4,4.76,4.76,0,0,1,1.4,3.4v.1a4.78,4.78,0,0,1-4.8,4.8H826.7v17a7.87,7.87,0,0,0,2.3,5.6,7.32,7.32,0,0,0,5.6,2.3h18.7a4.94,4.94,0,0,1,3.4,1.4,4.76,4.76,0,0,1,1.4,3.4v.1a4.78,4.78,0,0,1-4.8,4.8H834.6a17.41,17.41,0,0,1-17.5-17.5V709a17.41,17.41,0,0,1,17.5-17.5h18.7a4.94,4.94,0,0,1,3.4,1.4,4.6,4.6,0,0,1,1.4,3.4v.1a4.78,4.78,0,0,1-4.8,4.8H834.6a7.87,7.87,0,0,0-5.6,2.3,7.32,7.32,0,0,0-2.3,5.6Z" transform="translate(-119.02 -308.94)"/><path class="cls-3" d="M887.2,701a12.24,12.24,0,0,0-8.8,3.6,11.55,11.55,0,0,0-3.6,8.8c0,4.2,1.9,7.3,5.7,9.5,1.5.9,5.9,2.3,13,4.4,5.7,1.7,9.9,3.7,12.5,6.1,3.8,3.4,5.7,8.3,5.7,14.6a21.07,21.07,0,0,1-6.6,15.7,21.52,21.52,0,0,1-15.7,6.5h-20a4.94,4.94,0,0,1-3.4-1.4,4.39,4.39,0,0,1-1.4-3.4v-.3a4.94,4.94,0,0,1,1.4-3.4,4.76,4.76,0,0,1,3.4-1.4h20.5a12.24,12.24,0,0,0,8.8-3.6,11.92,11.92,0,0,0,3.6-8.8,10.45,10.45,0,0,0-5.7-9.5c-1.6-1-6-2.6-13-4.8-5.8-1.9-9.9-4-12.5-6.3-3.8-3.4-5.7-8.1-5.7-14a22.19,22.19,0,0,1,22.2-22.2h14.1a4.76,4.76,0,0,1,3.4,1.4,4.6,4.6,0,0,1,1.4,3.4v.3a4.94,4.94,0,0,1-1.4,3.4,4.76,4.76,0,0,1-3.4,1.4Z" transform="translate(-119.02 -308.94)"/><path class="cls-3" d="M972.2,765.4a4.78,4.78,0,0,1-4.8,4.8h-.2a4.94,4.94,0,0,1-3.4-1.4,4.6,4.6,0,0,1-1.4-3.4v-25H930.7v25a4.78,4.78,0,0,1-4.8,4.8h-.2a4.94,4.94,0,0,1-3.4-1.4,4.6,4.6,0,0,1-1.4-3.4V717a25.55,25.55,0,1,1,51.1,0l.2,48.4Zm-9.7-34.6V717a15.17,15.17,0,0,0-4.6-11.2,15.48,15.48,0,0,0-11.3-4.7A15.88,15.88,0,0,0,930.8,717v13.8Z" transform="translate(-119.02 -308.94)"/></g></svg>