<?xml version="1.0" encoding="utf-8"?>
<!-- Generator: Adobe Illustrator 25.2.1, SVG Export Plug-In . SVG Version: 6.00 Build 0)  -->
<svg version="1.1" id="Camada_1" xmlns="http://www.w3.org/2000/svg" xmlns:xlink="http://www.w3.org/1999/xlink" x="0px" y="0px"
	 viewBox="0 0 1080 1080" style="enable-background:new 0 0 1080 1080;" xml:space="preserve">
<style type="text/css">
	.st0{display:none;}
	.st1{display:inline;}
	.st2{clip-path:url(#SVGID_2_);fill:#242C48;}
	.st3{clip-path:url(#SVGID_4_);fill:#242C48;}
	.st4{clip-path:url(#SVGID_6_);fill:#242C48;}
	.st5{clip-path:url(#SVGID_8_);fill:#242C48;}
	.st6{fill:#242C48;}
</style>
<g id="Camada_2_1_" class="st0">
	<rect class="st1" width="1080" height="1080"/>
</g>
<g id="Camada_1_1_">
	<g>
		<g>
			<defs>
				<rect id="SVGID_1_" x="116.7" y="308.9" width="861.3" height="329.8"/>
			</defs>
			<clipPath id="SVGID_2_">
				<use xlink:href="#SVGID_1_"  style="overflow:visible;"/>
			</clipPath>
			<path class="st2" d="M825.8,507.8c0,39.2,0,77,0,114.7c0,12.1-4,16.1-16.2,16.1c-6.7,0-13.5,0-20.2,0
				c-10.2-0.1-14.5-4.3-14.5-14.4c0-98.8,0-197.6,0-296.4c0-8.8,2-12.1,10.2-14.8c9.6-3.1,19.7-3.5,29.7-4c6-0.3,10.4,5.1,10.9,12
				c0.2,3.2,0,6.5,0,9.8c0,52.3,0,104.7,0,158.2c7.2-8,13.9-15.2,20.3-22.6c6.7-7.8,13.1-15.8,19.8-23.6
				c9.7-11.2,19.6-22.2,29.3-33.4c4.2-4.8,9.6-6.8,15.9-6.8c9.5,0.1,19.1-0.1,28.7,0.1c3.9,0.1,8.1,0.1,10.2,4.8
				c2,4.3,0.8,7.9-2,11.1c-7,8.2-14.1,16.2-21.2,24.3c-15.4,17.6-30.8,35.2-46.3,52.8c-1.8,2.1-1.5,3.5,0.1,5.5
				c24.1,31,48.2,62,72.3,93c7,8.9,14.2,17.7,21.2,26.5c2.9,3.7,5.4,7.8,2.7,12.7c-2.4,4.4-6.7,5-11.1,5c-8.7,0.1-17.4-0.1-26.1,0
				c-7.8,0.1-13.5-2.8-18.4-9.2c-17.4-22.7-35.3-45-52.9-67.5c-13.2-17-26.3-34.1-39.5-51.1C828.3,510,827.4,509.4,825.8,507.8"/>
		</g>
		<g>
			<defs>
				<rect id="SVGID_3_" x="116.7" y="308.9" width="861.3" height="329.8"/>
			</defs>
			<clipPath id="SVGID_4_">
				<use xlink:href="#SVGID_3_"  style="overflow:visible;"/>
			</clipPath>
			<path class="st3" d="M612,460.4c0-33.7,0-67.3,0-101c0-9.6,1.9-12.5,11.2-15.3c8.8-2.6,17.9-3.8,27.1-4
				c7.8-0.1,12.6,4.8,12.6,12.8c0,14.8,0.4,29.5-0.2,44.3c-0.2,6.1,1.8,7.1,7.2,6.9c12.8-0.4,25.6-0.2,38.4-0.1
				c8.5,0,13.2,4.6,13.2,13c0,6.3,0.1,12.6,0,18.9c-0.1,7.4-5,12.4-12.5,12.4c-13.7,0.1-27.4,0.2-41-0.1c-3.8-0.1-5.2,0.7-5.2,4.9
				c0.2,37.4-0.2,74.7,0.2,112.1c0.2,15.7,13.4,30.2,29.4,29.2c5.4-0.3,10.9-0.2,16.3,0c7,0.2,14.2,5.4,13,13.3
				c-0.8,5.5-0.8,11.3,0,16.9c0.9,6.7-4.7,11.9-11.6,12.6c-8.5,0.9-17.2,1.5-25.8,1.3c-33.9-0.5-61-23.3-69.5-55.6
				c-2.1-7.8-2.7-16-2.7-24.2C612,526,612,493.1,612,460.4"/>
		</g>
		<g>
			<defs>
				<rect id="SVGID_5_" x="116.7" y="308.9" width="861.3" height="329.8"/>
			</defs>
			<clipPath id="SVGID_6_">
				<use xlink:href="#SVGID_5_"  style="overflow:visible;"/>
			</clipPath>
			<path class="st4" d="M321.3,322c0-7.8-4.7-13.7-11.7-13c-9.6,1-19.5,0.7-28.9,4.4c-7.7,3.1-10.2,6.4-10.2,14.7
				c0,22.8-0.2,45.6,0.1,68.4c0.1,5.3-1.6,6.3-6.5,6.2c-15-0.3-30-0.2-45-0.1c-8.1,0.1-16.3,1-24,3.3c-29,8.3-50.4,26.1-64.1,53
				c-12.7,24.9-16.5,51.1-13.2,78.9c2.2,19.4,7.9,37.4,18.5,53.7c20.1,31,48.7,46.9,85.8,47.1c28.4,0.1,56.9,0,85.3,0
				c9.3,0,13.9-4.5,13.9-13.7V473.8C321.3,423.2,321.3,372.6,321.3,322 M270.5,521.3c0,22.6-0.1,45.1,0.1,67.7
				c0,4.3-1.1,5.4-5.4,5.3c-14.3-0.2-28.6-0.2-43-0.1c-20.3,0.1-34.6-10.1-44.1-27c-11.4-20.2-12.6-42.2-9.4-64.7
				c2.3-16.3,8.3-30.6,20-42.4c8.8-8.8,19.7-12.6,31.6-13.1c14.9-0.6,29.9,0,44.9-0.2c4.3-0.1,5.4,1.2,5.4,5.4
				C270.4,475.3,270.5,498.3,270.5,521.3"/>
		</g>
		<g>
			<defs>
				<rect id="SVGID_7_" x="116.7" y="308.9" width="861.3" height="329.8"/>
			</defs>
			<clipPath id="SVGID_8_">
				<use xlink:href="#SVGID_7_"  style="overflow:visible;"/>
			</clipPath>
			<path class="st5" d="M565.1,463.8c-3.2-18.3-11.7-33.1-26.7-44.2c-12.4-9.2-26-14.7-41.7-15.8c-21.3-1.6-42.6-2.8-63.6,1.7
				c-34.1,7.3-58.9,35.1-58.5,72c0.1,14.6,0,29.1,0,43.7c0,16.1-0.3,32.2,0.1,48.2c0.4,16.5,6.6,31.1,17.7,43.3
				c16.5,18.2,38,24.9,61.9,26c11.3,0.5,22.4-1.2,33.6-1.5c12.6-0.3,24.9-2.5,36.9-6.6c7.4-2.6,10.2-7,10.2-15
				c0-5.4,0.1-10.9,0-16.3c-0.2-6.4-4.2-10-10.5-10.3c-9.5-0.3-18.4,3.4-27.7,4.4c-8.1,0.9-16.2,0.1-24.3,1.9
				c-5.8,1.3-12.1,0.5-18.2,0.2c-11.8-0.7-20.6-6.5-26-16.9c-3.8-7.4-2.4-15.5-2.8-23.4c-0.2-4.4,1.4-5.2,5.5-5.3
				c23.1-0.5,46.4,1.6,69.5-1.2c21.2-2.5,38.6-11.9,51.5-28.8C564.7,503.2,568.7,484.4,565.1,463.8 M496.9,504.6
				c-4.4,1.5-8.5,2.4-13.1,2.4c-8.3-0.1-16.5,0-24.8,0c-9.8,0-19.5,0-29.3,0c-1.5,0-4.1,0.9-4-1.8c0.4-12.5-1.8-25.1,1.1-37.4
				c3.2-13.1,12.6-20.8,25.3-21.6c13.7-0.9,27.6-1.8,41.4,0.9c11.9,2.3,20.9,14,22,25.9C517.1,490,506.3,501.3,496.9,504.6"/>
		</g>
	</g>
</g>
<g id="Camada_3">
	<g>
		<path class="st6" d="M162.6,744v21.5c0,1.3-0.5,2.5-1.4,3.4c-0.9,0.9-2.1,1.4-3.4,1.4h-0.2c-1.3,0-2.4-0.5-3.4-1.4
			c-0.9-0.9-1.4-2-1.4-3.4v-47.7c0-7.3,2.6-13.5,7.7-18.6c5.1-5.1,11.3-7.7,18.6-7.7c7.3,0,13.5,2.5,18.6,7.7
			c5.1,5.1,7.7,11.3,7.7,18.6c0,7.2-2.6,13.4-7.7,18.6c-5.1,5.1-11.3,7.7-18.6,7.7L162.6,744L162.6,744z M162.6,734.3h16.6
			c4.6,0,8.5-1.6,11.8-4.9c3.2-3.2,4.8-7.1,4.8-11.7s-1.6-8.5-4.8-11.8c-3.2-3.2-7.2-4.9-11.8-4.9s-8.5,1.6-11.8,4.9
			c-3.2,3.2-4.8,7.2-4.8,11.8V734.3z"/>
		<path class="st6" d="M280.6,703c7.7,7.7,11.5,17,11.5,27.8c0,10.9-3.9,20.2-11.5,27.8c-7.7,7.7-17,11.5-27.9,11.5
			c-10.9,0-20.2-3.8-27.9-11.5s-11.5-17-11.5-27.8c0-10.9,3.9-20.2,11.5-27.8c7.7-7.7,17-11.5,27.9-11.5
			C263.5,691.4,272.9,695.3,280.6,703z M231.7,709.8c-5.8,5.8-8.7,12.8-8.7,21c0,8.2,2.9,15.2,8.7,21c5.8,5.8,12.8,8.7,21,8.7
			c8.2,0,15.2-2.9,21-8.7c5.8-5.8,8.7-12.8,8.7-21c0-8.2-2.9-15.2-8.7-21c-5.8-5.8-12.8-8.7-21-8.7
			C244.5,701.1,237.5,704,231.7,709.8z"/>
		<path class="st6" d="M342.8,755.7c0-4.1-1.5-7.7-4.4-10.6c-2.7-2.7-5.8-4.1-9.5-4.3h-17.1v24.7c0,1.3-0.5,2.5-1.4,3.4
			c-0.9,0.9-2.1,1.4-3.4,1.4h-0.1c-1.3,0-2.5-0.5-3.4-1.4c-0.9-0.9-1.4-2-1.4-3.4v-55.1c0-5.2,1.8-9.7,5.5-13.3
			c3.7-3.7,8.2-5.6,13.4-5.6h6.8c6.8,0,12.6,2.4,17.4,7.2c4.8,4.8,7.2,10.7,7.2,17.5c0,6.8-2.4,12.6-7.2,17.4
			c-0.9,0.9-1.8,1.7-2.7,2.4c0.9,0.7,1.9,1.5,2.7,2.4c4.8,4.8,7.2,10.6,7.2,17.4v9.7c0,1.3-0.5,2.5-1.4,3.4
			c-0.9,0.9-2.1,1.4-3.4,1.4h-0.1c-1.3,0-2.4-0.5-3.4-1.4c-0.9-0.9-1.4-2-1.4-3.4L342.8,755.7L342.8,755.7z M327.8,731.1
			c4.1,0,7.7-1.5,10.6-4.3c2.9-2.9,4.4-6.5,4.4-10.6c0-4.2-1.5-7.7-4.4-10.7c-2.9-2.9-6.5-4.3-10.6-4.3h-6c-3,0-5.5,0.9-7.2,2.6
			c-1.4,1.4-2.3,3-2.6,4.9c-0.1,0.5-0.2,1.2-0.2,2.2v20.3L327.8,731.1L327.8,731.1z"/>
		<path class="st6" d="M405.6,696.3c0,1.3-0.5,2.5-1.4,3.4c-0.9,0.9-2,1.4-3.4,1.4h-14.4v64.4c0,1.3-0.5,2.5-1.4,3.4
			c-0.9,0.9-2.1,1.4-3.4,1.4h-0.1c-1.3,0-2.5-0.5-3.4-1.4c-0.9-0.9-1.4-2-1.4-3.4v-64.4h-14.4c-1.3,0-2.4-0.5-3.4-1.4
			c-0.9-0.9-1.4-2.1-1.4-3.4v-0.1c0-1.3,0.5-2.5,1.4-3.4c0.9-0.9,2.1-1.4,3.4-1.4h38.4c1.3,0,2.5,0.5,3.4,1.4
			c0.9,0.9,1.4,2.1,1.4,3.4L405.6,696.3L405.6,696.3z"/>
		<path class="st6" d="M464.6,765.4c0,1.3-0.5,2.5-1.4,3.4c-0.9,0.9-2.1,1.4-3.4,1.4h-0.2c-1.3,0-2.4-0.5-3.4-1.4
			c-0.9-0.9-1.4-2-1.4-3.4v-25h-31.7v25c0,1.3-0.5,2.5-1.4,3.4c-0.9,0.9-2.1,1.4-3.4,1.4h-0.2c-1.3,0-2.4-0.5-3.4-1.4
			c-0.9-0.9-1.4-2-1.4-3.4V717c0-7.1,2.5-13.1,7.5-18.1c5-5,11-7.5,18-7.5c7.1,0,13.1,2.5,18.1,7.5c5,5,7.5,11,7.5,18.1L464.6,765.4
			L464.6,765.4z M454.9,730.8V717c0-4.4-1.5-8.1-4.6-11.2c-3.1-3.1-6.9-4.7-11.3-4.7c-4.4,0-8.1,1.6-11.2,4.7
			c-3.1,3.1-4.6,6.8-4.6,11.2v13.8H454.9z"/>
		<path class="st6" d="M486.4,752.6c0,2.2,0.8,4,2.3,5.6s3.4,2.3,5.6,2.3h15.3c1.3,0,2.5,0.5,3.4,1.4c0.9,0.9,1.4,2.1,1.4,3.4v0.1
			c0,1.3-0.5,2.5-1.4,3.4c-0.9,0.9-2.1,1.4-3.4,1.4h-15.3c-4.9,0-9-1.7-12.4-5.1s-5.1-7.6-5.1-12.4v-56.4c0-1.3,0.5-2.5,1.4-3.4
			c0.9-0.9,2.1-1.4,3.4-1.4h0.2c1.3,0,2.4,0.5,3.4,1.4c0.9,0.9,1.4,2.1,1.4,3.4L486.4,752.6L486.4,752.6z"/>
		<path class="st6" d="M559.3,726h26.6c1.3,0,2.4,0.5,3.4,1.4c0.9,0.9,1.4,2.1,1.4,3.4v0.1c0,1.3-0.5,2.5-1.4,3.4
			c-0.9,0.9-2.1,1.4-3.4,1.4h-26.6v17c0,2.2,0.8,4,2.3,5.6s3.4,2.3,5.6,2.3h18.7c1.3,0,2.4,0.5,3.4,1.4c0.9,0.9,1.4,2.1,1.4,3.4v0.1
			c0,1.3-0.5,2.5-1.4,3.4c-0.9,0.9-2.1,1.4-3.4,1.4h-18.7c-4.9,0-9-1.7-12.4-5.1s-5.1-7.6-5.1-12.4V709c0-4.9,1.7-9,5.1-12.4
			s7.6-5.1,12.4-5.1h18.7c1.3,0,2.4,0.5,3.4,1.4c0.9,0.9,1.4,2,1.4,3.4v0.1c0,1.3-0.5,2.5-1.4,3.4s-2.1,1.4-3.4,1.4h-18.7
			c-2.2,0-4,0.8-5.6,2.3s-2.3,3.4-2.3,5.6V726z"/>
		<path class="st6" d="M609,765.4c0,1.3-0.5,2.5-1.4,3.4c-0.9,0.9-2.1,1.4-3.4,1.4h-0.2c-1.3,0-2.4-0.5-3.4-1.4
			c-0.9-0.9-1.4-2-1.4-3.4v-50.3c0-6.5,2.3-12.1,6.9-16.7c4.6-4.6,10.2-6.9,16.7-6.9c7.8,0,14.1,3.1,18.8,9.3
			c4.7-6.2,11-9.3,18.8-9.3c6.5,0,12.1,2.3,16.7,6.9c4.6,4.6,6.9,10.2,6.9,16.7v50.3c0,1.3-0.5,2.5-1.4,3.4
			c-0.9,0.9-2.1,1.4-3.4,1.4h-0.1c-1.3,0-2.5-0.5-3.4-1.4c-0.9-0.9-1.4-2-1.4-3.4v-50.3c0-3.9-1.4-7.2-4.1-9.9s-6-4.1-9.9-4.1
			c-3.8,0-7.1,1.4-9.9,4.1s-4.1,6-4.1,9.9v50.3c0,1.3-0.5,2.5-1.4,3.4c-0.9,0.9-2,1.4-3.4,1.4h-0.1c-1.3,0-2.5-0.5-3.4-1.4
			c-0.9-0.9-1.4-2-1.4-3.4v-50.3c0-3.9-1.4-7.2-4.1-9.9s-6-4.1-9.9-4.1s-7.1,1.4-9.9,4.1s-4.1,6-4.1,9.9L609,765.4L609,765.4z"/>
		<path class="st6" d="M705.5,744v21.5c0,1.3-0.5,2.5-1.4,3.4c-0.9,0.9-2.1,1.4-3.4,1.4h-0.2c-1.3,0-2.4-0.5-3.4-1.4
			c-0.9-0.9-1.4-2-1.4-3.4v-47.7c0-7.3,2.6-13.5,7.7-18.6c5.1-5.1,11.3-7.7,18.6-7.7c7.3,0,13.5,2.5,18.6,7.7
			c5.1,5.1,7.7,11.3,7.7,18.6c0,7.2-2.6,13.4-7.7,18.6c-5.1,5.1-11.3,7.7-18.6,7.7L705.5,744L705.5,744z M705.5,734.3H722
			c4.6,0,8.5-1.6,11.8-4.9c3.2-3.2,4.8-7.1,4.8-11.7s-1.6-8.5-4.8-11.8c-3.2-3.2-7.2-4.9-11.8-4.9s-8.5,1.6-11.8,4.9
			c-3.2,3.2-4.8,7.2-4.8,11.8V734.3z"/>
		<path class="st6" d="M798.5,755.7c0-4.1-1.5-7.7-4.4-10.6c-2.7-2.7-5.8-4.1-9.5-4.3h-17.1v24.7c0,1.3-0.5,2.5-1.4,3.4
			c-0.9,0.9-2.1,1.4-3.4,1.4h-0.1c-1.3,0-2.5-0.5-3.4-1.4c-0.9-0.9-1.4-2-1.4-3.4v-55.1c0-5.2,1.8-9.7,5.5-13.3
			c3.7-3.7,8.2-5.6,13.4-5.6h6.8c6.8,0,12.6,2.4,17.4,7.2c4.8,4.8,7.2,10.7,7.2,17.5c0,6.8-2.4,12.6-7.2,17.4
			c-0.9,0.9-1.8,1.7-2.7,2.4c0.9,0.7,1.8,1.5,2.7,2.4c4.8,4.8,7.2,10.6,7.2,17.4v9.7c0,1.3-0.5,2.5-1.4,3.4
			c-0.9,0.9-2.1,1.4-3.4,1.4h-0.1c-1.3,0-2.4-0.5-3.4-1.4c-0.9-0.9-1.4-2-1.4-3.4L798.5,755.7L798.5,755.7z M783.5,731.1
			c4.1,0,7.7-1.5,10.6-4.3c2.9-2.9,4.4-6.5,4.4-10.6c0-4.2-1.5-7.7-4.4-10.7c-2.9-2.9-6.5-4.3-10.6-4.3h-6c-3,0-5.5,0.9-7.2,2.6
			c-1.4,1.4-2.3,3-2.6,4.9c-0.1,0.5-0.2,1.2-0.2,2.2v20.3L783.5,731.1L783.5,731.1z"/>
		<path class="st6" d="M826.7,726h26.6c1.3,0,2.4,0.5,3.4,1.4c0.9,0.9,1.4,2.1,1.4,3.4v0.1c0,1.3-0.5,2.5-1.4,3.4
			c-0.9,0.9-2.1,1.4-3.4,1.4h-26.6v17c0,2.2,0.8,4,2.3,5.6s3.4,2.3,5.6,2.3h18.7c1.3,0,2.4,0.5,3.4,1.4c0.9,0.9,1.4,2.1,1.4,3.4v0.1
			c0,1.3-0.5,2.5-1.4,3.4c-0.9,0.9-2.1,1.4-3.4,1.4h-18.7c-4.9,0-9-1.7-12.4-5.1s-5.1-7.6-5.1-12.4V709c0-4.9,1.7-9,5.1-12.4
			s7.6-5.1,12.4-5.1h18.7c1.3,0,2.4,0.5,3.4,1.4c0.9,0.9,1.4,2,1.4,3.4v0.1c0,1.3-0.5,2.5-1.4,3.4s-2.1,1.4-3.4,1.4h-18.7
			c-2.2,0-4,0.8-5.6,2.3s-2.3,3.4-2.3,5.6V726z"/>
		<path class="st6" d="M887.2,701c-3.4,0-6.3,1.2-8.8,3.6s-3.6,5.3-3.6,8.8c0,4.2,1.9,7.3,5.7,9.5c1.5,0.9,5.9,2.3,13,4.4
			c5.7,1.7,9.9,3.7,12.5,6.1c3.8,3.4,5.7,8.3,5.7,14.6c0,6.2-2.2,11.4-6.6,15.7c-4.3,4.3-9.6,6.5-15.7,6.5h-20
			c-1.3,0-2.4-0.5-3.4-1.4s-1.4-2.1-1.4-3.4v-0.3c0-1.3,0.5-2.4,1.4-3.4c0.9-0.9,2.1-1.4,3.4-1.4h20.5c3.4,0,6.3-1.2,8.8-3.6
			c2.4-2.4,3.6-5.3,3.6-8.8c0-4.1-1.9-7.3-5.7-9.5c-1.6-1-6-2.6-13-4.8c-5.8-1.9-9.9-4-12.5-6.3c-3.8-3.4-5.7-8.1-5.7-14
			c0-6.2,2.2-11.4,6.5-15.7c4.3-4.3,9.6-6.5,15.7-6.5h14.1c1.3,0,2.5,0.5,3.4,1.4c0.9,0.9,1.4,2,1.4,3.4v0.3c0,1.3-0.5,2.4-1.4,3.4
			c-0.9,0.9-2.1,1.4-3.4,1.4H887.2z"/>
		<path class="st6" d="M972.2,765.4c0,1.3-0.5,2.5-1.4,3.4c-0.9,0.9-2.1,1.4-3.4,1.4h-0.2c-1.3,0-2.4-0.5-3.4-1.4
			c-0.9-0.9-1.4-2-1.4-3.4v-25h-31.7v25c0,1.3-0.5,2.5-1.4,3.4c-0.9,0.9-2.1,1.4-3.4,1.4h-0.2c-1.3,0-2.4-0.5-3.4-1.4
			c-0.9-0.9-1.4-2-1.4-3.4V717c0-7.1,2.5-13.1,7.5-18.1c5-5,11-7.5,18-7.5c7.1,0,13.1,2.5,18.1,7.5c5,5,7.5,11,7.5,18.1L972.2,765.4
			L972.2,765.4z M962.5,730.8V717c0-4.4-1.5-8.1-4.6-11.2c-3.1-3.1-6.9-4.7-11.3-4.7c-4.4,0-8.1,1.6-11.2,4.7
			c-3.1,3.1-4.6,6.8-4.6,11.2v13.8H962.5z"/>
	</g>
</g>
</svg>
